<svg width="256" height="256" viewBox="0 0 256 256" fill="none" xmlns="http://www.w3.org/2000/svg">
  <!-- Outer ring segments -->
  <path d="M128 32 A96 96 0 0 1 200 72 L176 88 A64 64 0 0 0 128 64 Z" fill="#a8e6cf"/>
  <path d="M200 72 A96 96 0 0 1 224 128 L192 128 A64 64 0 0 0 176 88 Z" fill="#5fc3d8"/>
  <path d="M224 128 A96 96 0 0 1 200 184 L176 168 A64 64 0 0 0 192 128 Z" fill="#4db8d1"/>
  <path d="M200 184 A96 96 0 0 1 128 224 L128 192 A64 64 0 0 0 176 168 Z" fill="#5fc3d8"/>
  <path d="M128 224 A96 96 0 0 1 56 184 L80 168 A64 64 0 0 0 128 192 Z" fill="#a8e6cf"/>
  <path d="M56 184 A96 96 0 0 1 32 128 L64 128 A64 64 0 0 0 80 168 Z" fill="#5fc3d8"/>
  <path d="M32 128 A96 96 0 0 1 56 72 L80 88 A64 64 0 0 0 64 128 Z" fill="#4db8d1"/>
  <path d="M56 72 A96 96 0 0 1 128 32 L128 64 A64 64 0 0 0 80 88 Z" fill="#5fc3d8"/>
  
  <!-- Center circle -->
  <circle cx="128" cy="128" r="32" fill="white"/>
  
  <!-- Diagonal stripe -->
  <rect x="96" y="-32" width="64" height="320" fill="#5fc3d8" transform="rotate(45 128 128)"/>
</svg>

